0
SECTION
2
HEADER
9
$INSUNITS
70
1
9
$ACADVER
1
AC1014
9
$HANDSEED
5
FFFF
0
ENDSEC
0
SECTION
2
TABLES
0
TABLE
2
VPORT
5
8
100
AcDbSymbolTable
0
ENDTAB
0
TABLE
2
LTYPE
5
5
100
AcDbSymbolTable
0
LTYPE
5
14
100
AcDbSymbolTableRecord
100
AcDbLinetypeTableRecord
2
BYBLOCK
70
0
0
LTYPE
5
15
100
AcDbSymbolTableRecord
100
AcDbLinetypeTableRecord
2
BYLAYER
70
0
0
ENDTAB
0
TABLE
2
LAYER
5
2
100
AcDbSymbolTable
70
2
0
LAYER
5
50
100
AcDbSymbolTableRecord
100
AcDbLayerTableRecord
2
0
70
0
6
CONTINUOUS
0
ENDTAB
0
TABLE
2
STYLE
5
3
100
AcDbSymbolTable
70
1
0
STYLE
5
11
100
AcDbSymbolTableRecord
100
AcDbTextStyleTableRecord
2
STANDARD
70
0
0
ENDTAB
0
TABLE
2
VIEW
5
6
100
AcDbSymbolTable
70
0
0
ENDTAB
0
TABLE
2
UCS
5
7
100
AcDbSymbolTable
70
0
0
ENDTAB
0
TABLE
2
APPID
5
9
100
AcDbSymbolTable
70
2
0
APPID
5
12
100
AcDbSymbolTableRecord
100
AcDbRegAppTableRecord
2
ACAD
70
0
0
ENDTAB
0
TABLE
2
DIMSTYLE
5
A
100
AcDbSymbolTable
70
1
0
ENDTAB
0
TABLE
2
BLOCK_RECORD
5
1
100
AcDbSymbolTable
70
1
0
BLOCK_RECORD
5
1F
100
AcDbSymbolTableRecord
100
AcDbBlockTableRecord
2
*MODEL_SPACE
0
BLOCK_RECORD
5
1B
100
AcDbSymbolTableRecord
100
AcDbBlockTableRecord
2
*PAPER_SPACE
0
ENDTAB
0
ENDSEC
0
SECTION
2
BLOCKS
0
BLOCK
5
20
100
AcDbEntity
100
AcDbBlockBegin
2
*MODEL_SPACE
0
ENDBLK
5
21
100
AcDbEntity
100
AcDbBlockEnd
0
BLOCK
5
1C
100
AcDbEntity
100
AcDbBlockBegin
2
*PAPER_SPACE
0
ENDBLK
5
1D
100
AcDbEntity
100
AcDbBlockEnd
0
ENDSEC
0
SECTION
2
ENTITIES
0
LINE
5
100
100
AcDbEntity
8
0
100
AcDbLine
10
0.98109501893699846
20
-0.11811023622047245
30
0
11
0.48109501893699869
21
-0.11811023622047245
31
0
0
LWPOLYLINE
5
101
100
AcDbEntity
8
0
100
AcDbPolyline
90
2
70
1
43
0.0
10
0.48109501893699869
20
-0.11811023622047245
10
0.98109501893699846
20
-0.11811023622047245
0
LINE
5
102
100
AcDbEntity
8
0
100
AcDbLine
10
1.7500000000000002
20
-0.11811023622047245
30
0
11
0
21
-0.11811023622047245
31
0
0
LINE
5
103
100
AcDbEntity
8
0
100
AcDbLine
10
0
20
-0.11811023622047245
30
0
11
0.19999999999999998
21
-0.11811023622047245
31
0
0
LINE
5
104
100
AcDbEntity
8
0
100
AcDbLine
10
0.19999999999999998
20
-0.11811023622047245
30
0
11
0.39999999999999997
21
-0.11811023622047245
31
0
0
LINE
5
105
100
AcDbEntity
8
0
100
AcDbLine
10
0.39999999999999997
20
-0.11811023622047245
30
0
11
0.59999999999999998
21
-0.11811023622047245
31
0
0
LINE
5
106
100
AcDbEntity
8
0
100
AcDbLine
10
0.59999999999999998
20
-0.11811023622047245
30
0
11
0.79999999999999993
21
-0.11811023622047245
31
0
0
LINE
5
107
100
AcDbEntity
8
0
100
AcDbLine
10
0.79999999999999993
20
-0.11811023622047245
30
0
11
0.99999999999999989
21
-0.11811023622047245
31
0
0
LINE
5
108
100
AcDbEntity
8
0
100
AcDbLine
10
0.99999999999999989
20
-0.11811023622047245
30
0
11
1.2
21
-0.11811023622047245
31
0
0
LINE
5
109
100
AcDbEntity
8
0
100
AcDbLine
10
1.2
20
-0.11811023622047245
30
0
11
1.3999999999999999
21
-0.11811023622047245
31
0
0
LINE
5
110
100
AcDbEntity
8
0
100
AcDbLine
10
1.3999999999999999
20
-0.11811023622047245
30
0
11
1.5999999999999999
21
-0.11811023622047245
31
0
0
LINE
5
111
100
AcDbEntity
8
0
100
AcDbLine
10
2.5999999999999996
20
-0.11811023622047245
30
0
11
2.7999999999999998
21
-0.11811023622047245
31
0
0
LINE
5
112
100
AcDbEntity
8
0
100
AcDbLine
10
2.7999999999999998
20
-0.11811023622047245
30
0
11
2.9999999999999996
21
-0.11811023622047245
31
0
0
LINE
5
113
100
AcDbEntity
8
0
100
AcDbLine
10
0
20
-0.11811023622047245
30
0
11
0.48109501893699869
21
-0.11811023622047245
31
0
0
LINE
5
114
100
AcDbEntity
8
0
100
AcDbLine
10
0.48109501893699869
20
-0.11811023622047245
30
0
11
0.48109501893699869
21
0
31
0
0
LINE
5
115
100
AcDbEntity
8
0
100
AcDbLine
10
0.48109501893699869
20
0
30
0
11
0.98109501893699846
21
0
31
0
0
LINE
5
116
100
AcDbEntity
8
0
100
AcDbLine
10
0.98109501893699846
20
0
30
0
11
0.98109501893699846
21
-0.11811023622047245
31
0
0
LWPOLYLINE
5
117
100
AcDbEntity
8
0
100
AcDbPolyline
90
4
70
1
43
0.0
10
2.5189049810630006
20
0
10
2.0189049810630011
20
0
10
2.0189049810630011
20
-0.11811023622047245
10
2.5189049810630006
20
-0.11811023622047245
0
LINE
5
118
100
AcDbEntity
8
0
100
AcDbLine
10
2.5189049810630006
20
-0.11811023622047245
30
0
11
2.5189049810630006
21
0
31
0
0
LINE
5
119
100
AcDbEntity
8
0
100
AcDbLine
10
2.5189049810630006
20
0
30
0
11
2.0189049810630011
21
0
31
0
0
LINE
5
120
100
AcDbEntity
8
0
100
AcDbLine
10
2.0189049810630011
20
0
30
0
11
2.0189049810630011
21
-0.11811023622047245
31
0
0
LINE
5
121
100
AcDbEntity
8
0
100
AcDbLine
10
2.0189049810630011
20
-0.11811023622047245
30
0
11
0.98109501893699846
21
-0.11811023622047245
31
0
0
LINE
5
122
100
AcDbEntity
8
0
100
AcDbLine
10
2.5189049810630006
20
-0.11811023622047245
30
0
11
2.9999999999999996
21
-0.11811023622047245
31
0
0
LINE
5
123
100
AcDbEntity
8
0
100
AcDbLine
10
0
20
-0.11811023622047245
30
0
11
0
21
-3.1181102362204722
31
0
0
LINE
5
124
100
AcDbEntity
8
0
100
AcDbLine
10
2.9999999999999996
20
-0.11811023622047245
30
0
11
2.9999999999999996
21
-3.1181102362204722
31
0
0
LINE
5
125
100
AcDbEntity
8
0
100
AcDbLine
10
2.0189049810630011
20
-6.2362204724409445
30
0
11
2.0189049810630011
21
-6.1181102362204713
31
0
0
LINE
5
126
100
AcDbEntity
8
0
100
AcDbLine
10
0.48109501893699869
20
-6.1181102362204713
30
0
11
0.48109501893699869
21
-6.2362204724409445
31
0
0
LINE
5
127
100
AcDbEntity
8
0
100
AcDbLine
10
0.39999999999999997
20
-6.1181102362204713
30
0
11
0.59999999999999998
21
-6.1181102362204713
31
0
0
LINE
5
128
100
AcDbEntity
8
0
100
AcDbLine
10
2.5189049810630006
20
-6.1181102362204713
30
0
11
2.5189049810630006
21
-6.2362204724409445
31
0
0
LINE
5
129
100
AcDbEntity
8
0
100
AcDbLine
10
2.5189049810630006
20
-6.1181102362204713
30
0
11
2.5189049810630006
21
-6.2362204724409445
31
0
0
LINE
5
130
100
AcDbEntity
8
0
100
AcDbLine
10
0
20
-6.1181102362204713
30
0
11
0.19999999999999998
21
-6.1181102362204713
31
0
0
LINE
5
131
100
AcDbEntity
8
0
100
AcDbLine
10
0.19999999999999998
20
-6.1181102362204713
30
0
11
0.39999999999999997
21
-6.1181102362204713
31
0
0
LINE
5
132
100
AcDbEntity
8
0
100
AcDbLine
10
2.5189049810630006
20
-6.2362204724409445
30
0
11
2.0189049810630011
21
-6.2362204724409445
31
0
0
LINE
5
133
100
AcDbEntity
8
0
100
AcDbLine
10
0.98109501893699846
20
-6.2362204724409445
30
0
11
0.98109501893699846
21
-6.1181102362204713
31
0
0
LINE
5
134
100
AcDbEntity
8
0
100
AcDbLine
10
0
20
-6.1181102362204713
30
0
11
0.48109501893699869
21
-6.1181102362204713
31
0
0
LINE
5
135
100
AcDbEntity
8
0
100
AcDbLine
10
2.0189049810630011
20
-6.2362204724409445
30
0
11
2.0189049810630011
21
-6.1181102362204713
31
0
0
LINE
5
136
100
AcDbEntity
8
0
100
AcDbLine
10
0
20
-6.1181102362204713
30
0
11
0
21
-3.1181102362204722
31
0
0
LINE
5
137
100
AcDbEntity
8
0
100
AcDbLine
10
2.7999999999999998
20
-6.1181102362204713
30
0
11
2.9999999999999996
21
-6.1181102362204713
31
0
0
LINE
5
138
100
AcDbEntity
8
0
100
AcDbLine
10
0.48109501893699869
20
-6.2362204724409445
30
0
11
0.98109501893699846
21
-6.2362204724409445
31
0
0
LINE
5
139
100
AcDbEntity
8
0
100
AcDbLine
10
2.5189049810630006
20
-6.2362204724409445
30
0
11
2.0189049810630011
21
-6.2362204724409445
31
0
0
LINE
5
140
100
AcDbEntity
8
0
100
AcDbLine
10
2.9999999999999996
20
-6.1181102362204713
30
0
11
2.9999999999999996
21
-3.1181102362204722
31
0
0
LINE
5
141
100
AcDbEntity
8
0
100
AcDbLine
10
2.5189049810630006
20
-6.1181102362204713
30
0
11
2.9999999999999996
21
-6.1181102362204713
31
0
0
LINE
5
142
100
AcDbEntity
8
0
100
AcDbLine
10
2.5999999999999996
20
-6.1181102362204713
30
0
11
2.7999999999999998
21
-6.1181102362204713
31
0
0
LINE
5
143
100
AcDbEntity
8
0
100
AcDbLine
10
0.48109501893699869
20
-6.1181102362204713
30
0
11
0
21
-6.1181102362204713
31
0
0
LINE
5
144
100
AcDbEntity
8
0
100
AcDbLine
10
0.98109501893699846
20
-6.1181102362204713
30
0
11
2.0189049810630011
21
-6.1181102362204713
31
0
0
CIRCLE
5
145
100
AcDbEntity
8
0
100
AcDbCircle
10
2.9999999999999996
20
-3.1181102362204722
30
0
40
1.4249999999999998
210
0
220
-0
230
1
0
LINE
5
146
100
AcDbEntity
8
0
100
AcDbLine
10
2.2874999999999996
20
-3.1181102362204722
30
0
11
1.5749999999999995
21
-3.1181102362204722
31
0
0
CIRCLE
5
147
100
AcDbEntity
8
0
100
AcDbCircle
10
2.9999999999999996
20
-3.1181102362204722
30
0
40
0.71250000000000002
210
0
220
0
230
1
0
CIRCLE
5
148
100
AcDbEntity
8
0
100
AcDbCircle
10
1.4999999999999998
20
-5.2287399030111628
30
0
40
0.55000000000000004
210
0
220
0
230
1
0
LINE
5
149
100
AcDbEntity
8
0
100
AcDbLine
10
1.4999999999999998
20
-5.2287399030111628
30
0
11
2.4399999999999995
21
-5.2287399030111628
31
0
0
CIRCLE
5
150
100
AcDbEntity
8
0
100
AcDbCircle
10
2.4399999999999995
20
-5.2287399030111628
30
0
40
0.099999999999999908
210
0
220
0
230
1
0
LINE
5
151
100
AcDbEntity
8
0
100
AcDbLine
10
1.4999999999999998
20
-6.1181102362204713
30
0
11
1.4999999999999998
21
-5.2287399030111628
31
0
0
CIRCLE
5
152
100
AcDbEntity
8
0
100
AcDbCircle
10
0.55999999999999983
20
-5.2287399030111628
30
0
40
0.099999999999999908
210
0
220
0
230
1
0
CIRCLE
5
153
100
AcDbEntity
8
0
100
AcDbCircle
10
1.9999999999999996
20
-3.1181102362204722
30
0
40
0.097500000000000184
210
0
220
0
230
1
0
ENDSEC
0
SECTION
2
OBJECTS
0
DICTIONARY
5
C
100
AcDbDictionary
3
ACAD_GROUP
350
D
3
ACAD_MLINESTYLE
350
17
0
DICTIONARY
5
D
100
AcDbDictionary
0
DICTIONARY
5
1A
330
C
100
AcDbDictionary
0
DICTIONARY
5
17
100
AcDbDictionary
0
ENDSEC
0
EOF
