0
SECTION
2
HEADER
9
$INSUNITS
70
1
9
$ACADVER
1
AC1014
9
$HANDSEED
5
FFFF
0
ENDSEC
0
SECTION
2
TABLES
0
TABLE
2
VPORT
5
8
100
AcDbSymbolTable
0
ENDTAB
0
TABLE
2
LTYPE
5
5
100
AcDbSymbolTable
0
LTYPE
5
14
100
AcDbSymbolTableRecord
100
AcDbLinetypeTableRecord
2
BYBLOCK
70
0
0
LTYPE
5
15
100
AcDbSymbolTableRecord
100
AcDbLinetypeTableRecord
2
BYLAYER
70
0
0
ENDTAB
0
TABLE
2
LAYER
5
2
100
AcDbSymbolTable
70
2
0
LAYER
5
50
100
AcDbSymbolTableRecord
100
AcDbLayerTableRecord
2
0
70
0
6
CONTINUOUS
0
ENDTAB
0
TABLE
2
STYLE
5
3
100
AcDbSymbolTable
70
1
0
STYLE
5
11
100
AcDbSymbolTableRecord
100
AcDbTextStyleTableRecord
2
STANDARD
70
0
0
ENDTAB
0
TABLE
2
VIEW
5
6
100
AcDbSymbolTable
70
0
0
ENDTAB
0
TABLE
2
UCS
5
7
100
AcDbSymbolTable
70
0
0
ENDTAB
0
TABLE
2
APPID
5
9
100
AcDbSymbolTable
70
2
0
APPID
5
12
100
AcDbSymbolTableRecord
100
AcDbRegAppTableRecord
2
ACAD
70
0
0
ENDTAB
0
TABLE
2
DIMSTYLE
5
A
100
AcDbSymbolTable
70
1
0
ENDTAB
0
TABLE
2
BLOCK_RECORD
5
1
100
AcDbSymbolTable
70
1
0
BLOCK_RECORD
5
1F
100
AcDbSymbolTableRecord
100
AcDbBlockTableRecord
2
*MODEL_SPACE
0
BLOCK_RECORD
5
1B
100
AcDbSymbolTableRecord
100
AcDbBlockTableRecord
2
*PAPER_SPACE
0
ENDTAB
0
ENDSEC
0
SECTION
2
BLOCKS
0
BLOCK
5
20
100
AcDbEntity
100
AcDbBlockBegin
2
*MODEL_SPACE
0
ENDBLK
5
21
100
AcDbEntity
100
AcDbBlockEnd
0
BLOCK
5
1C
100
AcDbEntity
100
AcDbBlockBegin
2
*PAPER_SPACE
0
ENDBLK
5
1D
100
AcDbEntity
100
AcDbBlockEnd
0
ENDSEC
0
SECTION
2
ENTITIES
0
LINE
5
100
100
AcDbEntity
8
0
100
AcDbLine
10
0.19999999999999998
20
0
30
0
11
0.19999999999999998
21
-0.11811023622047245
31
0
0
LINE
5
101
100
AcDbEntity
8
0
100
AcDbLine
10
0.19999999999999998
20
-0.11811023622047245
30
0
11
0
21
-0.11811023622047245
31
0
0
LINE
5
102
100
AcDbEntity
8
0
100
AcDbLine
10
0.39999999999999997
20
-0.11811023622047245
30
0
11
0.39999999999999997
21
0
31
0
0
LINE
5
103
100
AcDbEntity
8
0
100
AcDbLine
10
5.7999999999999989
20
0
30
0
11
6
21
0
31
0
0
LINE
5
104
100
AcDbEntity
8
0
100
AcDbLine
10
6
20
0
30
0
11
6
21
-0.11811023622047245
31
0
0
LINE
5
105
100
AcDbEntity
8
0
100
AcDbLine
10
5.7999999999999989
20
-0.11811023622047245
30
0
11
5.7999999999999989
21
0
31
0
0
LINE
5
106
100
AcDbEntity
8
0
100
AcDbLine
10
0.19999999999999998
20
-0.11811023622047245
30
0
11
0.19999999999999998
21
0
31
0
0
LINE
5
107
100
AcDbEntity
8
0
100
AcDbLine
10
0.19999999999999998
20
0
30
0
11
0.39999999999999997
21
0
31
0
0
LINE
5
108
100
AcDbEntity
8
0
100
AcDbLine
10
0.39999999999999997
20
0
30
0
11
0.39999999999999997
21
-0.11811023622047245
31
0
0
LINE
5
109
100
AcDbEntity
8
0
100
AcDbLine
10
0.19999999999999998
20
-0.11811023622047245
30
0
11
0
21
-0.11811023622047245
31
0
0
LINE
5
110
100
AcDbEntity
8
0
100
AcDbLine
10
0.39999999999999997
20
-0.11811023622047245
30
0
11
0.39999999999999997
21
0
31
0
0
LINE
5
111
100
AcDbEntity
8
0
100
AcDbLine
10
0.79999999999999993
20
-0.11811023622047245
30
0
11
0.79999999999999993
21
0
31
0
0
LINE
5
112
100
AcDbEntity
8
0
100
AcDbLine
10
0.59999999999999998
20
0
30
0
11
0.79999999999999993
21
0
31
0
0
LINE
5
113
100
AcDbEntity
8
0
100
AcDbLine
10
0.59999999999999998
20
-0.11811023622047245
30
0
11
0.59999999999999998
21
0
31
0
0
LINE
5
114
100
AcDbEntity
8
0
100
AcDbLine
10
0.59999999999999998
20
-0.11811023622047245
30
0
11
0.39999999999999997
21
-0.11811023622047245
31
0
0
LINE
5
115
100
AcDbEntity
8
0
100
AcDbLine
10
1.2
20
-0.11811023622047245
30
0
11
1.2
21
0
31
0
0
LINE
5
116
100
AcDbEntity
8
0
100
AcDbLine
10
0.99999999999999989
20
0
30
0
11
1.2
21
0
31
0
0
LINE
5
117
100
AcDbEntity
8
0
100
AcDbLine
10
0.99999999999999989
20
-0.11811023622047245
30
0
11
0.99999999999999989
21
0
31
0
0
LINE
5
118
100
AcDbEntity
8
0
100
AcDbLine
10
0.99999999999999989
20
-0.11811023622047245
30
0
11
0.79999999999999993
21
-0.11811023622047245
31
0
0
LINE
5
119
100
AcDbEntity
8
0
100
AcDbLine
10
1.5999999999999999
20
-0.11811023622047245
30
0
11
1.5999999999999999
21
0
31
0
0
LINE
5
120
100
AcDbEntity
8
0
100
AcDbLine
10
1.3999999999999999
20
0
30
0
11
1.5999999999999999
21
0
31
0
0
LINE
5
121
100
AcDbEntity
8
0
100
AcDbLine
10
1.3999999999999999
20
-0.11811023622047245
30
0
11
1.3999999999999999
21
0
31
0
0
LINE
5
122
100
AcDbEntity
8
0
100
AcDbLine
10
1.3999999999999999
20
-0.11811023622047245
30
0
11
1.2
21
-0.11811023622047245
31
0
0
LINE
5
123
100
AcDbEntity
8
0
100
AcDbLine
10
1.9999999999999998
20
-0.11811023622047245
30
0
11
1.9999999999999998
21
0
31
0
0
LINE
5
124
100
AcDbEntity
8
0
100
AcDbLine
10
1.7999999999999998
20
0
30
0
11
1.9999999999999998
21
0
31
0
0
LINE
5
125
100
AcDbEntity
8
0
100
AcDbLine
10
1.7999999999999998
20
-0.11811023622047245
30
0
11
1.7999999999999998
21
0
31
0
0
LINE
5
126
100
AcDbEntity
8
0
100
AcDbLine
10
1.7999999999999998
20
-0.11811023622047245
30
0
11
1.5999999999999999
21
-0.11811023622047245
31
0
0
LINE
5
127
100
AcDbEntity
8
0
100
AcDbLine
10
2.3999999999999999
20
-0.11811023622047245
30
0
11
2.3999999999999999
21
0
31
0
0
LINE
5
128
100
AcDbEntity
8
0
100
AcDbLine
10
2.1999999999999997
20
0
30
0
11
2.3999999999999999
21
0
31
0
0
LINE
5
129
100
AcDbEntity
8
0
100
AcDbLine
10
2.1999999999999997
20
-0.11811023622047245
30
0
11
2.1999999999999997
21
0
31
0
0
LINE
5
130
100
AcDbEntity
8
0
100
AcDbLine
10
2.1999999999999997
20
-0.11811023622047245
30
0
11
1.9999999999999998
21
-0.11811023622047245
31
0
0
LINE
5
131
100
AcDbEntity
8
0
100
AcDbLine
10
2.7999999999999998
20
-0.11811023622047245
30
0
11
2.7999999999999998
21
0
31
0
0
LINE
5
132
100
AcDbEntity
8
0
100
AcDbLine
10
2.5999999999999996
20
0
30
0
11
2.7999999999999998
21
0
31
0
0
LINE
5
133
100
AcDbEntity
8
0
100
AcDbLine
10
2.5999999999999996
20
-0.11811023622047245
30
0
11
2.5999999999999996
21
0
31
0
0
LINE
5
134
100
AcDbEntity
8
0
100
AcDbLine
10
2.5999999999999996
20
-0.11811023622047245
30
0
11
2.3999999999999999
21
-0.11811023622047245
31
0
0
LINE
5
135
100
AcDbEntity
8
0
100
AcDbLine
10
3.1999999999999997
20
-0.11811023622047245
30
0
11
3.1999999999999997
21
0
31
0
0
LINE
5
136
100
AcDbEntity
8
0
100
AcDbLine
10
3
20
0
30
0
11
3.1999999999999997
21
0
31
0
0
LINE
5
137
100
AcDbEntity
8
0
100
AcDbLine
10
3
20
-0.11811023622047245
30
0
11
3
21
0
31
0
0
LINE
5
138
100
AcDbEntity
8
0
100
AcDbLine
10
3
20
-0.11811023622047245
30
0
11
2.7999999999999998
21
-0.11811023622047245
31
0
0
LINE
5
139
100
AcDbEntity
8
0
100
AcDbLine
10
3.5999999999999996
20
-0.11811023622047245
30
0
11
3.5999999999999996
21
0
31
0
0
LINE
5
140
100
AcDbEntity
8
0
100
AcDbLine
10
3.3999999999999995
20
0
30
0
11
3.5999999999999996
21
0
31
0
0
LINE
5
141
100
AcDbEntity
8
0
100
AcDbLine
10
3.3999999999999995
20
-0.11811023622047245
30
0
11
3.3999999999999995
21
0
31
0
0
LINE
5
142
100
AcDbEntity
8
0
100
AcDbLine
10
3.3999999999999995
20
-0.11811023622047245
30
0
11
3.1999999999999997
21
-0.11811023622047245
31
0
0
LINE
5
143
100
AcDbEntity
8
0
100
AcDbLine
10
3.9999999999999996
20
-0.11811023622047245
30
0
11
3.9999999999999996
21
0
31
0
0
LINE
5
144
100
AcDbEntity
8
0
100
AcDbLine
10
3.8000000000000003
20
0
30
0
11
3.9999999999999996
21
0
31
0
0
LINE
5
145
100
AcDbEntity
8
0
100
AcDbLine
10
3.8000000000000003
20
-0.11811023622047245
30
0
11
3.8000000000000003
21
0
31
0
0
LINE
5
146
100
AcDbEntity
8
0
100
AcDbLine
10
3.8000000000000003
20
-0.11811023622047245
30
0
11
3.5999999999999996
21
-0.11811023622047245
31
0
0
LINE
5
147
100
AcDbEntity
8
0
100
AcDbLine
10
4.3999999999999995
20
-0.11811023622047245
30
0
11
4.3999999999999995
21
0
31
0
0
LINE
5
148
100
AcDbEntity
8
0
100
AcDbLine
10
4.1999999999999993
20
0
30
0
11
4.3999999999999995
21
0
31
0
0
LINE
5
149
100
AcDbEntity
8
0
100
AcDbLine
10
4.1999999999999993
20
-0.11811023622047245
30
0
11
4.1999999999999993
21
0
31
0
0
LINE
5
150
100
AcDbEntity
8
0
100
AcDbLine
10
4.1999999999999993
20
-0.11811023622047245
30
0
11
3.9999999999999996
21
-0.11811023622047245
31
0
0
LINE
5
151
100
AcDbEntity
8
0
100
AcDbLine
10
4.7999999999999998
20
-0.11811023622047245
30
0
11
4.7999999999999998
21
0
31
0
0
LINE
5
152
100
AcDbEntity
8
0
100
AcDbLine
10
4.5999999999999996
20
0
30
0
11
4.7999999999999998
21
0
31
0
0
LINE
5
153
100
AcDbEntity
8
0
100
AcDbLine
10
4.5999999999999996
20
-0.11811023622047245
30
0
11
4.5999999999999996
21
0
31
0
0
LINE
5
154
100
AcDbEntity
8
0
100
AcDbLine
10
4.5999999999999996
20
-0.11811023622047245
30
0
11
4.3999999999999995
21
-0.11811023622047245
31
0
0
LINE
5
155
100
AcDbEntity
8
0
100
AcDbLine
10
5.1999999999999993
20
-0.11811023622047245
30
0
11
5.1999999999999993
21
0
31
0
0
LINE
5
156
100
AcDbEntity
8
0
100
AcDbLine
10
4.9999999999999991
20
0
30
0
11
5.1999999999999993
21
0
31
0
0
LINE
5
157
100
AcDbEntity
8
0
100
AcDbLine
10
4.9999999999999991
20
-0.11811023622047245
30
0
11
4.9999999999999991
21
0
31
0
0
LINE
5
158
100
AcDbEntity
8
0
100
AcDbLine
10
4.9999999999999991
20
-0.11811023622047245
30
0
11
4.7999999999999998
21
-0.11811023622047245
31
0
0
LINE
5
159
100
AcDbEntity
8
0
100
AcDbLine
10
5.5999999999999996
20
-0.11811023622047245
30
0
11
5.5999999999999996
21
0
31
0
0
LINE
5
160
100
AcDbEntity
8
0
100
AcDbLine
10
5.4000000000000004
20
0
30
0
11
5.5999999999999996
21
0
31
0
0
LINE
5
161
100
AcDbEntity
8
0
100
AcDbLine
10
5.4000000000000004
20
-0.11811023622047245
30
0
11
5.4000000000000004
21
0
31
0
0
LINE
5
162
100
AcDbEntity
8
0
100
AcDbLine
10
5.4000000000000004
20
-0.11811023622047245
30
0
11
5.1999999999999993
21
-0.11811023622047245
31
0
0
LINE
5
163
100
AcDbEntity
8
0
100
AcDbLine
10
6
20
-0.11811023622047245
30
0
11
6
21
0
31
0
0
LINE
5
164
100
AcDbEntity
8
0
100
AcDbLine
10
5.7999999999999989
20
0
30
0
11
6
21
0
31
0
0
LINE
5
165
100
AcDbEntity
8
0
100
AcDbLine
10
5.7999999999999989
20
-0.11811023622047245
30
0
11
5.7999999999999989
21
0
31
0
0
LINE
5
166
100
AcDbEntity
8
0
100
AcDbLine
10
5.7999999999999989
20
-0.11811023622047245
30
0
11
5.5999999999999996
21
-0.11811023622047245
31
0
0
LINE
5
167
100
AcDbEntity
8
0
100
AcDbLine
10
0
20
-0.11811023622047245
30
0
11
0
21
-3.1181102362204722
31
0
0
LINE
5
168
100
AcDbEntity
8
0
100
AcDbLine
10
6
20
-3.1181102362204722
30
0
11
6
21
-0.11811023622047245
31
0
0
LINE
5
169
100
AcDbEntity
8
0
100
AcDbLine
10
0.19999999999999998
20
-6.1181102362204713
30
0
11
0.19999999999999998
21
-6.2362204724409445
31
0
0
LINE
5
170
100
AcDbEntity
8
0
100
AcDbLine
10
2.7999999999999998
20
-6.1181102362204713
30
0
11
2.7999999999999998
21
-6.2362204724409445
31
0
0
LINE
5
171
100
AcDbEntity
8
0
100
AcDbLine
10
0.59999999999999998
20
-6.1181102362204713
30
0
11
0.39999999999999997
21
-6.1181102362204713
31
0
0
LINE
5
172
100
AcDbEntity
8
0
100
AcDbLine
10
3.3999999999999995
20
-6.1181102362204713
30
0
11
3.1999999999999997
21
-6.1181102362204713
31
0
0
LINE
5
173
100
AcDbEntity
8
0
100
AcDbLine
10
5.7999999999999989
20
-6.2362204724409445
30
0
11
6
21
-6.2362204724409445
31
0
0
LINE
5
174
100
AcDbEntity
8
0
100
AcDbLine
10
0.39999999999999997
20
-6.1181102362204713
30
0
11
0.39999999999999997
21
-6.2362204724409445
31
0
0
LINE
5
175
100
AcDbEntity
8
0
100
AcDbLine
10
5.1999999999999993
20
-6.1181102362204713
30
0
11
5.1999999999999993
21
-6.2362204724409445
31
0
0
LINE
5
176
100
AcDbEntity
8
0
100
AcDbLine
10
0.99999999999999989
20
-6.1181102362204713
30
0
11
0.99999999999999989
21
-6.2362204724409445
31
0
0
LINE
5
177
100
AcDbEntity
8
0
100
AcDbLine
10
5.7999999999999989
20
-6.1181102362204713
30
0
11
5.7999999999999989
21
-6.2362204724409445
31
0
0
LINE
5
178
100
AcDbEntity
8
0
100
AcDbLine
10
2.1999999999999997
20
-6.2362204724409445
30
0
11
2.3999999999999999
21
-6.2362204724409445
31
0
0
LINE
5
179
100
AcDbEntity
8
0
100
AcDbLine
10
3
20
-6.2362204724409445
30
0
11
3.1999999999999997
21
-6.2362204724409445
31
0
0
LINE
5
180
100
AcDbEntity
8
0
100
AcDbLine
10
0.79999999999999993
20
-6.1181102362204713
30
0
11
0.79999999999999993
21
-6.2362204724409445
31
0
0
LINE
5
181
100
AcDbEntity
8
0
100
AcDbLine
10
0.39999999999999997
20
-6.2362204724409445
30
0
11
0.39999999999999997
21
-6.1181102362204713
31
0
0
LINE
5
182
100
AcDbEntity
8
0
100
AcDbLine
10
4.1999999999999993
20
-6.1181102362204713
30
0
11
4.1999999999999993
21
-6.2362204724409445
31
0
0
LINE
5
183
100
AcDbEntity
8
0
100
AcDbLine
10
5.5999999999999996
20
-6.1181102362204713
30
0
11
5.5999999999999996
21
-6.2362204724409445
31
0
0
LINE
5
184
100
AcDbEntity
8
0
100
AcDbLine
10
5.4000000000000004
20
-6.2362204724409445
30
0
11
5.5999999999999996
21
-6.2362204724409445
31
0
0
LINE
5
185
100
AcDbEntity
8
0
100
AcDbLine
10
1.7999999999999998
20
-6.1181102362204713
30
0
11
1.5999999999999999
21
-6.1181102362204713
31
0
0
LINE
5
186
100
AcDbEntity
8
0
100
AcDbLine
10
0.39999999999999997
20
-6.1181102362204713
30
0
11
0.39999999999999997
21
-6.2362204724409445
31
0
0
LINE
5
187
100
AcDbEntity
8
0
100
AcDbLine
10
6
20
-3.1181102362204722
30
0
11
6
21
-6.1181102362204713
31
0
0
LINE
5
188
100
AcDbEntity
8
0
100
AcDbLine
10
0.19999999999999998
20
-6.1181102362204713
30
0
11
0
21
-6.1181102362204713
31
0
0
LINE
5
189
100
AcDbEntity
8
0
100
AcDbLine
10
2.1999999999999997
20
-6.1181102362204713
30
0
11
2.1999999999999997
21
-6.2362204724409445
31
0
0
LINE
5
190
100
AcDbEntity
8
0
100
AcDbLine
10
2.5999999999999996
20
-6.1181102362204713
30
0
11
2.3999999999999999
21
-6.1181102362204713
31
0
0
LINE
5
191
100
AcDbEntity
8
0
100
AcDbLine
10
3.3999999999999995
20
-6.2362204724409445
30
0
11
3.5999999999999996
21
-6.2362204724409445
31
0
0
LINE
5
192
100
AcDbEntity
8
0
100
AcDbLine
10
4.5999999999999996
20
-6.1181102362204713
30
0
11
4.3999999999999995
21
-6.1181102362204713
31
0
0
LINE
5
193
100
AcDbEntity
8
0
100
AcDbLine
10
3.3999999999999995
20
-6.1181102362204713
30
0
11
3.3999999999999995
21
-6.2362204724409445
31
0
0
LINE
5
194
100
AcDbEntity
8
0
100
AcDbLine
10
4.1999999999999993
20
-6.2362204724409445
30
0
11
4.3999999999999995
21
-6.2362204724409445
31
0
0
LINE
5
195
100
AcDbEntity
8
0
100
AcDbLine
10
3
20
-6.1181102362204713
30
0
11
2.7999999999999998
21
-6.1181102362204713
31
0
0
LINE
5
196
100
AcDbEntity
8
0
100
AcDbLine
10
5.4000000000000004
20
-6.1181102362204713
30
0
11
5.4000000000000004
21
-6.2362204724409445
31
0
0
LINE
5
197
100
AcDbEntity
8
0
100
AcDbLine
10
1.2
20
-6.1181102362204713
30
0
11
1.2
21
-6.2362204724409445
31
0
0
LINE
5
198
100
AcDbEntity
8
0
100
AcDbLine
10
4.9999999999999991
20
-6.1181102362204713
30
0
11
4.7999999999999998
21
-6.1181102362204713
31
0
0
LINE
5
199
100
AcDbEntity
8
0
100
AcDbLine
10
3.5999999999999996
20
-6.1181102362204713
30
0
11
3.5999999999999996
21
-6.2362204724409445
31
0
0
LINE
5
200
100
AcDbEntity
8
0
100
AcDbLine
10
2.5999999999999996
20
-6.1181102362204713
30
0
11
2.5999999999999996
21
-6.2362204724409445
31
0
0
LINE
5
201
100
AcDbEntity
8
0
100
AcDbLine
10
0.99999999999999989
20
-6.1181102362204713
30
0
11
0.79999999999999993
21
-6.1181102362204713
31
0
0
LINE
5
202
100
AcDbEntity
8
0
100
AcDbLine
10
5.7999999999999989
20
-6.2362204724409445
30
0
11
6
21
-6.2362204724409445
31
0
0
LINE
5
203
100
AcDbEntity
8
0
100
AcDbLine
10
0
20
-6.1181102362204713
30
0
11
0
21
-3.1181102362204722
31
0
0
LINE
5
204
100
AcDbEntity
8
0
100
AcDbLine
10
1.9999999999999998
20
-6.1181102362204713
30
0
11
1.9999999999999998
21
-6.2362204724409445
31
0
0
LINE
5
205
100
AcDbEntity
8
0
100
AcDbLine
10
4.9999999999999991
20
-6.2362204724409445
30
0
11
5.1999999999999993
21
-6.2362204724409445
31
0
0
LINE
5
206
100
AcDbEntity
8
0
100
AcDbLine
10
6
20
-6.1181102362204713
30
0
11
6
21
-6.2362204724409445
31
0
0
LINE
5
207
100
AcDbEntity
8
0
100
AcDbLine
10
2.3999999999999999
20
-6.1181102362204713
30
0
11
2.3999999999999999
21
-6.2362204724409445
31
0
0
LINE
5
208
100
AcDbEntity
8
0
100
AcDbLine
10
4.3999999999999995
20
-6.1181102362204713
30
0
11
4.3999999999999995
21
-6.2362204724409445
31
0
0
LINE
5
209
100
AcDbEntity
8
0
100
AcDbLine
10
1.7999999999999998
20
-6.1181102362204713
30
0
11
1.7999999999999998
21
-6.2362204724409445
31
0
0
LINE
5
210
100
AcDbEntity
8
0
100
AcDbLine
10
3.9999999999999996
20
-6.1181102362204713
30
0
11
3.9999999999999996
21
-6.2362204724409445
31
0
0
LINE
5
211
100
AcDbEntity
8
0
100
AcDbLine
10
4.5999999999999996
20
-6.2362204724409445
30
0
11
4.7999999999999998
21
-6.2362204724409445
31
0
0
LINE
5
212
100
AcDbEntity
8
0
100
AcDbLine
10
3.8000000000000003
20
-6.1181102362204713
30
0
11
3.8000000000000003
21
-6.2362204724409445
31
0
0
LINE
5
213
100
AcDbEntity
8
0
100
AcDbLine
10
2.5999999999999996
20
-6.2362204724409445
30
0
11
2.7999999999999998
21
-6.2362204724409445
31
0
0
LINE
5
214
100
AcDbEntity
8
0
100
AcDbLine
10
4.1999999999999993
20
-6.1181102362204713
30
0
11
3.9999999999999996
21
-6.1181102362204713
31
0
0
LINE
5
215
100
AcDbEntity
8
0
100
AcDbLine
10
3
20
-6.1181102362204713
30
0
11
3
21
-6.2362204724409445
31
0
0
LINE
5
216
100
AcDbEntity
8
0
100
AcDbLine
10
3.1999999999999997
20
-6.1181102362204713
30
0
11
3.1999999999999997
21
-6.2362204724409445
31
0
0
LINE
5
217
100
AcDbEntity
8
0
100
AcDbLine
10
6
20
-6.2362204724409445
30
0
11
6
21
-6.1181102362204713
31
0
0
LINE
5
218
100
AcDbEntity
8
0
100
AcDbLine
10
3.8000000000000003
20
-6.1181102362204713
30
0
11
3.5999999999999996
21
-6.1181102362204713
31
0
0
LINE
5
219
100
AcDbEntity
8
0
100
AcDbLine
10
4.9999999999999991
20
-6.1181102362204713
30
0
11
4.9999999999999991
21
-6.2362204724409445
31
0
0
LINE
5
220
100
AcDbEntity
8
0
100
AcDbLine
10
1.3999999999999999
20
-6.1181102362204713
30
0
11
1.3999999999999999
21
-6.2362204724409445
31
0
0
LINE
5
221
100
AcDbEntity
8
0
100
AcDbLine
10
1.3999999999999999
20
-6.2362204724409445
30
0
11
1.5999999999999999
21
-6.2362204724409445
31
0
0
LINE
5
222
100
AcDbEntity
8
0
100
AcDbLine
10
0.59999999999999998
20
-6.2362204724409445
30
0
11
0.79999999999999993
21
-6.2362204724409445
31
0
0
LINE
5
223
100
AcDbEntity
8
0
100
AcDbLine
10
5.7999999999999989
20
-6.1181102362204713
30
0
11
5.5999999999999996
21
-6.1181102362204713
31
0
0
LINE
5
224
100
AcDbEntity
8
0
100
AcDbLine
10
5.4000000000000004
20
-6.1181102362204713
30
0
11
5.1999999999999993
21
-6.1181102362204713
31
0
0
LINE
5
225
100
AcDbEntity
8
0
100
AcDbLine
10
1.5999999999999999
20
-6.1181102362204713
30
0
11
1.5999999999999999
21
-6.2362204724409445
31
0
0
LINE
5
226
100
AcDbEntity
8
0
100
AcDbLine
10
0.59999999999999998
20
-6.1181102362204713
30
0
11
0.59999999999999998
21
-6.2362204724409445
31
0
0
LINE
5
227
100
AcDbEntity
8
0
100
AcDbLine
10
0.19999999999999998
20
-6.1181102362204713
30
0
11
0
21
-6.1181102362204713
31
0
0
LINE
5
228
100
AcDbEntity
8
0
100
AcDbLine
10
4.7999999999999998
20
-6.1181102362204713
30
0
11
4.7999999999999998
21
-6.2362204724409445
31
0
0
LINE
5
229
100
AcDbEntity
8
0
100
AcDbLine
10
3.8000000000000003
20
-6.2362204724409445
30
0
11
3.9999999999999996
21
-6.2362204724409445
31
0
0
LINE
5
230
100
AcDbEntity
8
0
100
AcDbLine
10
1.3999999999999999
20
-6.1181102362204713
30
0
11
1.2
21
-6.1181102362204713
31
0
0
LINE
5
231
100
AcDbEntity
8
0
100
AcDbLine
10
1.7999999999999998
20
-6.2362204724409445
30
0
11
1.9999999999999998
21
-6.2362204724409445
31
0
0
LINE
5
232
100
AcDbEntity
8
0
100
AcDbLine
10
4.5999999999999996
20
-6.1181102362204713
30
0
11
4.5999999999999996
21
-6.2362204724409445
31
0
0
LINE
5
233
100
AcDbEntity
8
0
100
AcDbLine
10
0.19999999999999998
20
-6.2362204724409445
30
0
11
0.39999999999999997
21
-6.2362204724409445
31
0
0
LINE
5
234
100
AcDbEntity
8
0
100
AcDbLine
10
0.19999999999999998
20
-6.2362204724409445
30
0
11
0.19999999999999998
21
-6.1181102362204713
31
0
0
LINE
5
235
100
AcDbEntity
8
0
100
AcDbLine
10
2.1999999999999997
20
-6.1181102362204713
30
0
11
1.9999999999999998
21
-6.1181102362204713
31
0
0
LINE
5
236
100
AcDbEntity
8
0
100
AcDbLine
10
0.99999999999999989
20
-6.2362204724409445
30
0
11
1.2
21
-6.2362204724409445
31
0
0
LINE
5
237
100
AcDbEntity
8
0
100
AcDbLine
10
5.7999999999999989
20
-6.1181102362204713
30
0
11
5.7999999999999989
21
-6.2362204724409445
31
0
0
LINE
5
238
100
AcDbEntity
8
0
100
AcDbLine
10
6
20
-3.1181102362204722
30
0
11
0
21
-3.1181102362204722
31
0
0
CIRCLE
5
239
100
AcDbEntity
8
0
100
AcDbCircle
10
2.9999999999999996
20
-3.1181102362204722
30
0
40
1.425
210
0
220
0
230
1
0
ENDSEC
0
SECTION
2
OBJECTS
0
DICTIONARY
5
C
100
AcDbDictionary
3
ACAD_GROUP
350
D
3
ACAD_MLINESTYLE
350
17
0
DICTIONARY
5
D
100
AcDbDictionary
0
DICTIONARY
5
1A
330
C
100
AcDbDictionary
0
DICTIONARY
5
17
100
AcDbDictionary
0
ENDSEC
0
EOF
